<svg xmlns="http://www.w3.org/2000/svg" width="12.82" height="14" viewBox="0 0 12.82 14">
  <path id="fi-rr-stopwatch" d="M8.576,7.576a1.165,1.165,0,1,1-1.748-1V4.079a.583.583,0,0,1,1.165,0V6.571a1.162,1.162,0,0,1,.583,1Zm3.531-4.348a6.41,6.41,0,1,1-9.394,0l-.392-.435a2.14,2.14,0,0,1-.739.121.583.583,0,1,1,0-1.165c.457,0,.583-.125.583-.583a.583.583,0,1,1,1.165,0,2.047,2.047,0,0,1-.163.826l.411.457A6.365,6.365,0,0,1,6.827,1.2V.583a.583.583,0,1,1,1.165,0V1.2a6.365,6.365,0,0,1,3.248,1.252l.411-.457a2.047,2.047,0,0,1-.163-.825.583.583,0,0,1,1.165,0c0,.457.125.583.583.583a.583.583,0,0,1,0,1.165,2.14,2.14,0,0,1-.739-.121Zm.548,4.348A5.245,5.245,0,1,0,7.41,12.82,5.245,5.245,0,0,0,12.655,7.576Z" transform="translate(-1)" fill="$grey-color"/>
</svg>
